<svg aria-hidden="true" style="position: absolute; width: 0; height: 0; overflow: hidden;" version="1.1" xmlns="http://www.w3.org/2000/svg" xmlns:xlink="http://www.w3.org/1999/xlink">
<defs>
  <symbol id="icon-serch" viewBox="0 0 32 32">
  <path d="M30.786 26.636c0.53 0.53 0.859 1.264 0.859 2.075 0 1.62-1.314 2.933-2.933 2.933-0.811 0-1.543-0.329-2.075-0.86v0l-8.597-8.596c-1.746 1.031-3.776 1.634-5.95 1.634-6.48 0-11.733-5.253-11.733-11.733s5.253-11.733 11.733-11.733c6.48 0 11.733 5.253 11.733 11.733 0 2.174-0.603 4.204-1.634 5.95l8.597 8.597zM12.089 3.287c-4.86 0-8.8 3.941-8.8 8.802s3.94 8.8 8.8 8.8c4.86 0 8.8-3.94 8.8-8.8s-3.94-8.802-8.8-8.802z"></path>
  </symbol>

  <symbol id="icon-shop" viewBox="0 0 38 32">
  <path d="M37.815 7.814h0.002l-5.28 11.733c-0.26 0.578-0.823 0.99-1.487 1.035v0l-15.206 1.013 0.879 2.509h16.557c1.943 0 3.52 1.577 3.52 3.522 0 1.943-1.577 3.52-3.52 3.52s-3.52-1.577-3.52-3.52h-16.427c0 1.943-1.577 3.52-3.52 3.52s-3.52-1.577-3.52-3.52c0-1.946 1.577-3.522 3.52-3.522h3.181l-6.775-19.358h-4.032c-0.973 0-1.76-0.789-1.76-1.76 0-0.973 0.787-1.76 1.76-1.76h5.28c0.768 0 1.414 0.495 1.655 1.18l0.006-0.002 1.024 2.929h26.061c0.973 0 1.76 0.787 1.76 1.76 0 0.256-0.058 0.499-0.158 0.721zM11.386 8.853l3.253 9.295 15.123-1.009 3.729-8.286h-22.106z"></path>
  </symbol>

  <symbol id="icon-facebook" viewBox="0 0 16 32">
  <path d="M14.879 0.245c0 1.817 0 5.072 0 5.072s-3.738-0.373-4.674 1.060c-0.512 0.783-0.208 3.077-0.254 4.724 1.632 0 3.327 0 4.959 0-0.418 1.925-0.719 3.23-1.028 4.896-1.412 0-3.958 0-3.958 0v15.759c0 0-4.673 0-6.87 0 0.001-4.858-0.001-10.526 0-15.697-1.067 0-1.856 0-2.923 0 0-1.817 0-3.14 0-4.958 1.035 0 1.855 0 2.891 0 0.148-3.626 0.203-7.217 2.005-9.046 2.023-2.057 3.954-1.809 9.852-1.809z"></path>
  </symbol>

  <symbol id="icon-instagram" viewBox="0 0 32 32">
  <path d="M27.938 31.754h-23.631c-2.175 0-3.938-1.764-3.938-3.94v-23.63c0-2.176 1.764-3.94 3.938-3.94h23.631c2.175 0 3.938 1.764 3.938 3.94v23.63c0 2.176-1.764 3.94-3.938 3.94zM16.123 9.894c-2.457 0-4.567 1.455-5.536 3.545h-0.006c-0.010 0.022-0.017 0.046-0.027 0.068-0.058 0.129-0.108 0.262-0.158 0.395-0.023 0.065-0.049 0.128-0.070 0.192-0.046 0.138-0.082 0.277-0.117 0.418-0.017 0.065-0.037 0.13-0.052 0.197-0.032 0.149-0.054 0.3-0.075 0.453-0.009 0.062-0.021 0.122-0.028 0.185-0.022 0.214-0.036 0.432-0.036 0.654 0 3.371 2.734 6.103 6.105 6.103s6.105-2.732 6.105-6.103c0-0.222-0.014-0.439-0.036-0.654-0.007-0.063-0.020-0.123-0.028-0.185-0.021-0.153-0.043-0.304-0.075-0.453-0.015-0.066-0.034-0.132-0.052-0.197-0.034-0.142-0.071-0.281-0.117-0.418-0.021-0.064-0.047-0.127-0.070-0.192-0.049-0.133-0.1-0.266-0.158-0.395-0.010-0.022-0.017-0.046-0.027-0.068h-0.006c-0.969-2.090-3.079-3.545-5.536-3.545zM28.332 5.365c0-0.87-0.705-1.574-1.575-1.574h-3.151c-0.87 0-1.575 0.704-1.575 1.574v3.152c0 0.87 0.705 1.575 1.575 1.575h3.151c0.87 0 1.575-0.705 1.575-1.575v-3.152zM28.332 13.439h-2.905c0.224 0.816 0.345 1.675 0.345 2.561 0 5.329-4.32 9.648-9.649 9.648s-9.649-4.319-9.649-9.648c0-0.886 0.121-1.745 0.345-2.561h-2.905v13.194c0 0.871 0.705 1.577 1.575 1.577h21.268c0.87 0 1.575-0.705 1.575-1.577v-13.194z"></path>
  </symbol>

  <symbol id="icon-pinterest" viewBox="0 0 26 32">
  <path d="M11.14 20.743c-0.257 1.025-0.517 2.1-0.785 3.151-0.265 1.036-0.498 2.087-0.884 3.040-0.639 1.577-1.45 3.1-2.514 4.334-0.708 0.821-0.558 0.494-0.77 0.449-0.162-0.034-0.176-0.193-0.208-0.425-0.174-1.253-0.055-2.702 0.009-4.11 0.074-1.605 0.411-2.939 0.725-4.272 0.596-2.54 1.164-5.030 1.766-7.586 0.039-0.17 0.148-0.45 0.111-0.548-0.273-0.71-0.45-1.348-0.528-2.094-0.090-0.855-0.021-1.654 0.171-2.391 0.341-1.302 1.124-2.455 2.331-2.878 0.768-0.266 1.618-0.145 2.135 0.162 0.532 0.319 0.897 0.821 1.067 1.534 0.182 0.757 0.048 1.663-0.098 2.327-0.329 1.5-0.761 2.626-1.153 4.074-0.194 0.718-0.415 1.455-0.233 2.23 0.167 0.711 0.538 1.201 1.042 1.569 0.524 0.382 1.145 0.59 2 0.56 1.511-0.053 2.561-1.019 3.263-1.93 1.124-1.458 1.803-3.426 2.062-5.767 0.082-0.756 0.144-1.623 0.086-2.479-0.108-1.58-0.602-2.852-1.387-3.836-0.746-0.939-1.804-1.685-3.092-2.106-1.276-0.416-3.042-0.555-4.612-0.287-2.853 0.489-4.864 2.11-6.049 4.348-0.62 1.172-1.030 2.519-1.030 4.197 0 1.294 0.319 2.295 0.834 3.077 0.164 0.247 0.404 0.452 0.564 0.735 0.228 0.401-0.034 0.998-0.146 1.433-0.135 0.523-0.15 1.246-0.761 1.258-0.254 0.005-0.571-0.18-0.785-0.299-1.606-0.887-2.581-2.502-2.981-4.596-0.244-1.273-0.242-2.756 0-3.985 0.234-1.19 0.67-2.287 1.153-3.177 1.002-1.85 2.47-3.329 4.257-4.385 1.374-0.812 2.923-1.382 4.809-1.657 0.625-0.091 1.273-0.129 1.975-0.162 2.053-0.096 3.919 0.369 5.324 0.997 1.483 0.663 2.667 1.546 3.668 2.641 1.031 1.126 1.782 2.436 2.257 4.073 0.249 0.852 0.49 1.762 0.49 2.815 0 1.056-0.223 1.985-0.379 2.914-0.583 3.481-2.239 6.327-4.724 7.948-0.602 0.391-1.33 0.754-2.159 0.996-0.821 0.239-1.758 0.418-2.761 0.348-0.974-0.066-1.771-0.331-2.441-0.71-0.665-0.375-1.223-0.836-1.62-1.531z"></path>
  </symbol>

  <symbol id="icon-twitter" viewBox="0 0 38 32">
  <path d="M25.473 0.874c2.959-0.052 4.534 1.025 6.038 2.396 1.277-0.109 2.937-0.822 3.914-1.319 0.316-0.172 0.633-0.346 0.95-0.519-0.559 1.508-1.315 2.689-2.479 3.587-0.259 0.198-0.515 0.467-0.839 0.593 0 0.006 0 0.013 0 0.019 1.658-0.016 3.025-0.765 4.324-1.171 0 0.006 0 0.013 0 0.019-0.682 1.084-1.606 2.185-2.591 2.973-0.397 0.316-0.796 0.631-1.193 0.947 0.022 1.756-0.026 3.431-0.353 4.906-1.908 8.575-6.964 14.396-14.966 16.89-2.874 0.895-7.517 1.263-10.81 0.445-1.632-0.404-3.107-0.863-4.49-1.468-0.769-0.336-1.482-0.7-2.163-1.116-0.224-0.135-0.447-0.272-0.671-0.407 0.742 0.022 1.612 0.227 2.441 0.092 0.752-0.121 1.488-0.089 2.182-0.24 1.728-0.38 3.263-0.881 4.583-1.655 0.641-0.375 1.615-0.815 2.070-1.356-0.858 0.015-1.636-0.185-2.273-0.409-2.471-0.873-3.91-2.477-4.847-4.887 0.749 0.083 2.906 0.278 3.411-0.148-0.943-0.052-1.849-0.598-2.497-1.004-1.988-1.244-3.609-3.329-3.597-6.54 0.262 0.124 0.522 0.247 0.783 0.371 0.5 0.211 1.008 0.323 1.603 0.447 0.252 0.052 0.755 0.199 1.044 0.092-0.013 0-0.025 0-0.038 0-0.384-0.447-1.011-0.745-1.398-1.226-1.276-1.584-2.47-4.023-1.715-6.929 0.192-0.737 0.496-1.388 0.82-1.988 0.013 0.006 0.025 0.012 0.038 0.017 0.148 0.311 0.48 0.54 0.689 0.8 0.652 0.807 1.455 1.533 2.273 2.173 2.79 2.182 5.302 3.523 9.337 4.515 1.024 0.253 2.207 0.445 3.43 0.447-0.343-0.999-0.233-2.618 0.036-3.585 0.681-2.435 2.157-4.188 4.324-5.129 0.518-0.224 1.092-0.388 1.696-0.521 0.311-0.036 0.621-0.074 0.932-0.111z"></path>
  </symbol>

  <symbol id="icon-alarm" viewBox="0 0 32 32">
  <path d="M30.74 10.003c-1.623-3.715-4.528-6.62-8.142-8.204l-0.101-0.039c1-0.787 2.258-1.26 3.629-1.26 3.244 0 5.874 2.63 5.874 5.874v0c0 0.001 0 0.002 0 0.003 0 1.375-0.475 2.639-1.269 3.637l0.009-0.012zM30.5 16.5c0 3.852-1.512 7.343-3.963 9.94l2.029 2.028c0.268 0.268 0.434 0.639 0.434 1.049 0 0.819-0.664 1.483-1.483 1.483-0.41 0-0.781-0.166-1.049-0.435l-2.178-2.178c-2.307 1.635-5.179 2.613-8.28 2.613-0.003 0-0.007 0-0.010 0h0.001c-3.079 0-5.928-0.967-8.276-2.603l-2.163 2.163c-0.271 0.272-0.647 0.44-1.061 0.44-0.829 0-1.5-0.672-1.5-1.5 0-0.414 0.168-0.789 0.439-1.061l2.012-2.012c-2.443-2.595-3.951-6.082-3.951-9.927 0-8.008 6.492-14.5 14.5-14.5s14.5 6.492 14.5 14.5zM16 4.999c-6.351 0-11.5 5.149-11.5 11.501 0 6.351 5.149 11.5 11.5 11.5s11.5-5.149 11.5-11.5c0-6.352-5.149-11.501-11.5-11.501zM22 18h-6c-0.828 0-1.5-0.672-1.5-1.5v0-8.001c0-0.828 0.672-1.5 1.5-1.5s1.5 0.672 1.5 1.5v0 6.5h4.5c0.829 0 1.5 0.672 1.5 1.501s-0.672 1.5-1.5 1.5v0zM1.287 10.205c-0.802-1.007-1.287-2.297-1.287-3.701 0-0.002 0-0.003 0-0.005v0c0-3.314 2.686-6 6-6v0c1.4 0 2.685 0.483 3.706 1.287-3.795 1.658-6.761 4.624-8.379 8.315l-0.040 0.103z"></path>
  </symbol>

  <symbol id="icon-book" viewBox="0 0 32 32">
  <path d="M31.065 25.889l-14.471 5.988c-0.175 0.078-0.379 0.124-0.594 0.124s-0.419-0.046-0.604-0.127l0.009 0.004-14.471-5.988c-0.553-0.229-0.935-0.764-0.935-1.389v-23c0-0.828 0.672-1.5 1.5-1.5 0.207 0 0.404 0.042 0.583 0.117l-0.010-0.004h0.001l0.002 0.001 0.013 0.005 13.911 5.756 13.927-5.762c0.169-0.072 0.366-0.114 0.573-0.114 0.828 0 1.5 0.671 1.5 1.5v0 23c-0 0.625-0.382 1.16-0.925 1.385l-0.010 0.004zM14.5 8.502l-11.5-4.758v19.753l11.5 4.759v-19.754zM29 3.744l-11.5 4.758v19.754l11.5-4.759v-19.753zM19.879 10.634l5.5-2.5c0.182-0.085 0.396-0.135 0.621-0.135 0.828 0 1.5 0.672 1.5 1.5 0 0.603-0.356 1.123-0.87 1.362l-0.009 0.004-5.5 2.5c-0.182 0.085-0.396 0.135-0.621 0.135-0.828 0-1.5-0.672-1.5-1.5 0-0.603 0.356-1.123 0.87-1.362l0.009-0.004zM19.879 16.134l5.5-2.5c0.182-0.085 0.396-0.135 0.621-0.135 0.828 0 1.5 0.672 1.5 1.5 0 0.603-0.356 1.123-0.87 1.362l-0.009 0.004-5.5 2.5c-0.182 0.085-0.396 0.135-0.621 0.135-0.828 0-1.5-0.672-1.5-1.5 0-0.603 0.356-1.123 0.87-1.362l0.009-0.004zM19.879 21.634l5.5-2.5c0.182-0.085 0.396-0.135 0.621-0.135 0.828 0 1.5 0.672 1.5 1.5 0 0.603-0.356 1.123-0.87 1.362l-0.009 0.004-5.5 2.5c-0.182 0.085-0.396 0.135-0.621 0.135-0.828 0-1.5-0.672-1.5-1.5 0-0.603 0.356-1.123 0.87-1.362l0.009-0.004zM6 8c0.221 0 0.431 0.048 0.621 0.134l5.5 2.5c0.523 0.242 0.879 0.762 0.879 1.366 0 0.828-0.672 1.5-1.5 1.5-0.225 0-0.439-0.050-0.63-0.138l0.009 0.004-5.5-2.5c-0.522-0.242-0.878-0.762-0.878-1.365 0-0.828 0.671-1.499 1.499-1.5h0zM6 13.5c0.221 0 0.431 0.048 0.621 0.134l5.5 2.5c0.497 0.252 0.832 0.759 0.832 1.344 0 0.829-0.672 1.501-1.501 1.501-0.207 0-0.404-0.042-0.583-0.117l0.010 0.004-5.5-2.5c-0.522-0.242-0.878-0.762-0.878-1.365 0-0.828 0.671-1.499 1.499-1.5h0zM6 19c0.221 0 0.431 0.048 0.621 0.134l5.5 2.5c0.497 0.252 0.832 0.759 0.832 1.344 0 0.829-0.672 1.501-1.501 1.501-0.207 0-0.404-0.042-0.583-0.117l0.010 0.004-5.5-2.5c-0.522-0.242-0.878-0.762-0.878-1.365 0-0.828 0.671-1.499 1.499-1.5h0z"></path>
  </symbol>

  <symbol id="icon-computer" viewBox="0 0 28 32">
  <path d="M30 23h-9.5v2.499l2 2.001v0.5h-13v-0.5l2-2.001v-2.499h-9.5c-0.828 0-1.5-0.672-1.5-1.5 0-0 0-0.001 0-0.001v0-19.999c0-0.828 0.672-1.5 1.5-1.5v0h28c0.828 0 1.5 0.672 1.5 1.5v0 19.999c0 0 0 0.001 0 0.001 0 0.828-0.672 1.5-1.5 1.5v0zM29.5 2h-27v16.999h27v-16.999zM13 9c0.414 0 0.789 0.168 1.061 0.439l0.939 0.939 2.939-2.939c0.271-0.272 0.647-0.44 1.061-0.44 0.828 0 1.5 0.672 1.5 1.5 0 0.414-0.168 0.789-0.439 1.060l-4 4.001c-0.271 0.272-0.647 0.44-1.061 0.44s-0.79-0.168-1.061-0.44l-2-2.001c-0.271-0.271-0.439-0.646-0.439-1.060 0-0.828 0.671-1.5 1.5-1.5h0z"></path>
  </symbol>

  <symbol id="icon-digital" viewBox="0 0 32 32">
  <path d="M30.5 32h-29c-0.828 0-1.5-0.672-1.5-1.5v0-29c0-0.828 0.672-1.5 1.5-1.5v0h29c0.828 0 1.5 0.672 1.5 1.5v0 29c0 0.828-0.672 1.5-1.5 1.5v0zM29 3h-26v25.999h26v-25.999zM6.5 4.5h5.5c0.012-0 0.025-0 0.039-0 0.828 0 1.5 0.672 1.5 1.5s-0.672 1.5-1.5 1.5c-0.014 0-0.027-0-0.041-0.001l0.002 0h-4.5v4.5c0 0.828-0.672 1.5-1.5 1.5s-1.5-0.672-1.5-1.5v0-7.499h2zM4.5 20c0-0.828 0.672-1.5 1.5-1.5s1.5 0.672 1.5 1.5v0 4.499l4.5 0.001c0.828 0 1.5 0.672 1.5 1.5s-0.672 1.5-1.5 1.5v0h-7.5v-7.5zM20 4.5h7.5v7.499c0 0.828-0.672 1.5-1.5 1.5s-1.5-0.672-1.5-1.5v0-4.5h-4.5c-0.012 0-0.025 0-0.039 0-0.828 0-1.5-0.672-1.5-1.5s0.672-1.5 1.5-1.5c0.014 0 0.027 0 0.041 0.001l-0.002-0zM20 24.5v-0.001h4.5v-4.499c0-0.828 0.672-1.5 1.5-1.5s1.5 0.672 1.5 1.5v0 7.5h-7.5c-0.828 0-1.5-0.672-1.5-1.5s0.672-1.5 1.5-1.5v0z"></path>
  </symbol>

  <symbol id="icon-home" viewBox="0 0 32 32">
  <path d="M32 17c-0.001 0.828-0.672 1.499-1.5 1.499v0c-0.395-0-0.754-0.154-1.021-0.406l0.001 0.001-0.003 0.004-13.477-13.476-13.447 13.446c-0.273 0.278-0.652 0.451-1.072 0.451-0.828 0-1.5-0.672-1.5-1.5 0-0.434 0.184-0.825 0.479-1.099l0.001-0.001 14.458-14.459c0.273-0.284 0.656-0.461 1.081-0.461h0.001l0.079 0.003h0.012l0.068 0.006 0.004 0.001c0.367 0.040 0.694 0.212 0.933 0.468l0.001-0.001 5.902 5.902v-1.378c0-0.828 0.672-1.5 1.5-1.5s1.5 0.672 1.5 1.5v0 4.378l5.598 5.598-0.004 0.004c0.25 0.267 0.406 0.625 0.406 1.020zM29 19.5v10.5c0 0.828-0.672 1.5-1.5 1.5v0h-3v-12h-6v12h-14c-0.828 0-1.5-0.672-1.5-1.5v0-10.5l13-13 13 13zM13.5 19.5h-6v6h6v-6z"></path>
  </symbol>

  <symbol id="icon-line" viewBox="0 0 32 32">
  <path d="M30.5 32h-29c-0.828 0-1.5-0.672-1.5-1.5 0-0 0-0.001 0-0.001v0-29c0.001-0.828 0.672-1.499 1.5-1.499h29c0.828 0 1.499 0.671 1.5 1.499v29c0 0 0 0.001 0 0.001 0 0.828-0.672 1.5-1.5 1.5v0zM29 3h-26v26h26v-26zM5.215 16.238v-0.001l4-2.498c0.223-0.14 0.495-0.223 0.785-0.223 0.313 0 0.604 0.096 0.845 0.261l-0.005-0.003 0.006-0.008 6.631 4.42 7.638-5.392c0.25-0.194 0.568-0.31 0.914-0.31 0.828 0 1.5 0.672 1.5 1.5 0 0.511-0.256 0.962-0.646 1.233l-0.005 0.003 0.001 0.001-8.501 6c-0.246 0.179-0.55 0.284-0.878 0.284-0.321 0-0.618-0.101-0.861-0.272l-6.657-4.438-3.135 1.96c-0.234 0.157-0.521 0.251-0.831 0.251-0.828 0-1.5-0.672-1.5-1.5 0-0.531 0.276-0.998 0.693-1.265l0.006-0.004z"></path>
  </symbol>
</defs>
</svg>
