<svg aria-hidden="true" style="position:absolute;width:0;height:0" xmlns="http://www.w3.org/2000/svg" overflow="hidden"><defs><symbol id="icon-alarm" viewBox="0 0 32 32"><path d="M30.74 10.003c-1.623-3.715-4.528-6.62-8.142-8.204l-.101-.039c1-.787 2.258-1.26 3.629-1.26A5.874 5.874 0 0132 6.374v.003a5.822 5.822 0 01-1.269 3.637l.009-.012zM30.5 16.5c0 3.852-1.512 7.343-3.963 9.94l2.029 2.028a1.483 1.483 0 11-2.098 2.097l-2.178-2.178A14.305 14.305 0 0116.01 31H16h.001c-3.079 0-5.928-.967-8.276-2.603L5.562 30.56a1.5 1.5 0 11-2.122-2.121l2.012-2.012c-2.443-2.595-3.951-6.082-3.951-9.927 0-8.008 6.492-14.5 14.5-14.5s14.5 6.492 14.5 14.5zM16 4.999c-6.351 0-11.5 5.149-11.5 11.501C4.5 22.851 9.649 28 16 28s11.5-5.149 11.5-11.5c0-6.352-5.149-11.501-11.5-11.501zM22 18h-6a1.5 1.5 0 01-1.5-1.5V8.499a1.5 1.5 0 013 0v6.5H22A1.5 1.5 0 0122 18zM1.287 10.205A5.928 5.928 0 010 6.504v-.005a6 6 0 016-6c1.4 0 2.685.483 3.706 1.287-3.795 1.658-6.761 4.624-8.379 8.315l-.04.103z"/></symbol><symbol id="icon-book" viewBox="0 0 32 32"><path d="M31.065 25.889l-14.471 5.988a1.502 1.502 0 01-1.198-.003l.009.004L.934 25.89a1.502 1.502 0 01-.935-1.389v-23A1.5 1.5 0 012.082.118l-.01-.004h.001l.002.001.013.005 13.911 5.756L29.926.114A1.5 1.5 0 0131.999 1.5v23c0 .625-.382 1.16-.925 1.385l-.01.004zM14.5 8.502L3 3.744v19.753l11.5 4.759V8.502zM29 3.744L17.5 8.502v19.754L29 23.497V3.744zm-9.121 6.89l5.5-2.5a1.5 1.5 0 011.251 2.727l-.009.004-5.5 2.5a1.5 1.5 0 01-1.251-2.727l.009-.004zm0 5.5l5.5-2.5a1.5 1.5 0 011.251 2.727l-.009.004-5.5 2.5a1.5 1.5 0 01-1.251-2.727l.009-.004zm0 5.5l5.5-2.5a1.5 1.5 0 011.251 2.727l-.009.004-5.5 2.5a1.5 1.5 0 01-1.251-2.727l.009-.004zM6 8c.221 0 .431.048.621.134l5.5 2.5a1.5 1.5 0 11-1.251 2.728l.009.004-5.5-2.5A1.5 1.5 0 016 8.001zm0 5.5c.221 0 .431.048.621.134l5.5 2.5a1.501 1.501 0 01-1.252 2.728l.01.004-5.5-2.5A1.5 1.5 0 016 13.501zM6 19c.221 0 .431.048.621.134l5.5 2.5a1.501 1.501 0 01-1.252 2.728l.01.004-5.5-2.5A1.5 1.5 0 016 19.001z"/></symbol><symbol id="icon-computer" viewBox="0 0 32 32"><path d="M30 25h-9.5v2.499l2 2.001v.5h-13v-.5l2-2.001V25H2a1.5 1.5 0 01-1.5-1.5v-20A1.5 1.5 0 012 2h28a1.5 1.5 0 011.5 1.5v20A1.5 1.5 0 0130 25zm-.5-21h-27v16.999h27V4zM13 11c.414 0 .789.168 1.061.439l.939.939 2.939-2.939a1.5 1.5 0 012.122 2.12l-4 4.001c-.271.272-.647.44-1.061.44s-.79-.168-1.061-.44l-2-2.001A1.5 1.5 0 0113 10.999z"/></symbol><symbol id="icon-digital" viewBox="0 0 32 32"><path d="M30.5 32h-29A1.5 1.5 0 010 30.5v-29A1.5 1.5 0 011.5 0h29A1.5 1.5 0 0132 1.5v29a1.5 1.5 0 01-1.5 1.5zM29 3H3v25.999h26V3zM6.5 4.5h5.539a1.5 1.5 0 010 3l-.041-.001H12 7.5v4.5a1.5 1.5 0 01-3 0V4.5h2zM4.5 20a1.5 1.5 0 013 0v4.499l4.5.001a1.5 1.5 0 010 3H4.5V20zM20 4.5h7.5v7.499a1.5 1.5 0 01-3 0v-4.5h-4.539a1.5 1.5 0 010-3l.041.001H20zm0 20v-.001h4.5V20a1.5 1.5 0 013 0v7.5H20a1.5 1.5 0 010-3z"/></symbol><symbol id="icon-facebook" viewBox="0 0 32 32"><path d="M22.879.245v5.072s-3.738-.373-4.674 1.06c-.512.783-.208 3.077-.254 4.724h4.959c-.418 1.925-.719 3.23-1.028 4.896h-3.958v15.759h-6.87V16.059H8.131v-4.958h2.891c.148-3.626.203-7.217 2.005-9.046C15.05-.002 16.981.246 22.879.246z"/></symbol><symbol id="icon-home" viewBox="0 0 32 32"><path d="M32 17a1.5 1.5 0 01-1.5 1.499c-.395 0-.754-.154-1.021-.406l.001.001-.003.004L16 4.622 2.553 18.068A1.5 1.5 0 11.46 15.92l.001-.001L14.919 1.46A1.494 1.494 0 0116 .999h.001l.079.003h.012l.068.006.004.001c.367.04.694.212.933.468l.001-.001L23 7.378V6a1.5 1.5 0 013 0v4.378l5.598 5.598-.004.004c.25.267.406.625.406 1.02zm-3 2.5V30a1.5 1.5 0 01-1.5 1.5h-3v-12h-6v12h-14A1.5 1.5 0 013 30V19.5l13-13 13 13zm-15.5 0h-6v6h6v-6z"/></symbol><symbol id="icon-instagram" viewBox="0 0 32 32"><path d="M27.938 31.754H4.307a3.939 3.939 0 01-3.938-3.94V4.184A3.94 3.94 0 014.307.244h23.631a3.939 3.939 0 013.938 3.94v23.63a3.94 3.94 0 01-3.938 3.94zM16.123 9.894a6.1 6.1 0 00-5.536 3.545h-.006c-.01.022-.017.046-.027.068-.058.129-.108.262-.158.395-.023.065-.049.128-.07.192a5.51 5.51 0 00-.117.418c-.017.065-.037.13-.052.197a6.11 6.11 0 00-.075.453c-.009.062-.021.122-.028.185a6.104 6.104 0 006.069 6.757 6.104 6.104 0 006.069-6.757c-.007-.063-.02-.123-.028-.185a6.11 6.11 0 00-.075-.453c-.015-.066-.034-.132-.052-.197a4.87 4.87 0 00-.117-.418c-.021-.064-.047-.127-.07-.192a6.132 6.132 0 00-.158-.395c-.01-.022-.017-.046-.027-.068h-.006a6.1 6.1 0 00-5.536-3.545zm12.209-4.529c0-.87-.705-1.574-1.575-1.574h-3.151c-.87 0-1.575.704-1.575 1.574v3.152c0 .87.705 1.575 1.575 1.575h3.151c.87 0 1.575-.705 1.575-1.575V5.365zm0 8.074h-2.905c.224.816.345 1.675.345 2.561 0 5.329-4.32 9.648-9.649 9.648S6.474 21.329 6.474 16c0-.886.121-1.745.345-2.561H3.914v13.194c0 .871.705 1.577 1.575 1.577h21.268c.87 0 1.575-.705 1.575-1.577V13.439z"/></symbol><symbol id="icon-line" viewBox="0 0 32 32"><path d="M30.5 32h-29A1.5 1.5 0 010 30.5V1.499A1.5 1.5 0 011.5 0h29A1.5 1.5 0 0132 1.499V30.5a1.5 1.5 0 01-1.5 1.5zM29 3H3v26h26V3zM5.215 16.238v-.001l4-2.498a1.49 1.49 0 011.63.038l-.005-.003.006-.008 6.631 4.42 7.638-5.392a1.5 1.5 0 111.768 2.423l-.005.003.001.001-8.501 6c-.246.179-.55.284-.878.284-.321 0-.618-.101-.861-.272l-6.657-4.438-3.135 1.96a1.5 1.5 0 11-1.638-2.514l.006-.004z"/></symbol><symbol id="icon-pinterest" viewBox="0 0 32 32"><path d="M14.217 20.743c-.257 1.025-.517 2.1-.785 3.151-.265 1.036-.498 2.087-.884 3.04-.639 1.577-1.45 3.1-2.514 4.334-.708.821-.558.494-.77.449-.162-.034-.176-.193-.208-.425-.174-1.253-.055-2.702.009-4.11.074-1.605.411-2.939.725-4.272.596-2.54 1.164-5.03 1.766-7.586.039-.17.148-.45.111-.548-.273-.71-.45-1.348-.528-2.094a6.66 6.66 0 01.171-2.391c.341-1.302 1.124-2.455 2.331-2.878.768-.266 1.618-.145 2.135.162.532.319.897.821 1.067 1.534.182.757.048 1.663-.098 2.327-.329 1.5-.761 2.626-1.153 4.074-.194.718-.415 1.455-.233 2.23a2.598 2.598 0 001.042 1.569c.524.382 1.145.59 2 .56 1.511-.053 2.561-1.019 3.263-1.93 1.124-1.458 1.803-3.426 2.062-5.767.082-.756.144-1.623.086-2.479-.108-1.58-.602-2.852-1.387-3.836-.746-.939-1.804-1.685-3.092-2.106-1.276-.416-3.042-.555-4.612-.287-2.853.489-4.864 2.11-6.049 4.348-.62 1.172-1.03 2.519-1.03 4.197 0 1.294.319 2.295.834 3.077.164.247.404.452.564.735.228.401-.034.998-.146 1.433-.135.523-.15 1.246-.761 1.258-.254.005-.571-.18-.785-.299-1.606-.887-2.581-2.502-2.981-4.596-.244-1.273-.242-2.756 0-3.985A11.36 11.36 0 015.52 6.455c1.002-1.85 2.47-3.329 4.257-4.385C11.151 1.258 12.7.688 14.586.413c.625-.091 1.273-.129 1.975-.162a11.87 11.87 0 015.324.997 10.884 10.884 0 013.668 2.641c1.031 1.126 1.782 2.436 2.257 4.073.249.852.49 1.762.49 2.815 0 1.056-.223 1.985-.379 2.914-.583 3.481-2.239 6.327-4.724 7.948a8.206 8.206 0 01-2.159.996c-.821.239-1.758.418-2.761.348-.974-.066-1.771-.331-2.441-.71-.665-.375-1.223-.836-1.62-1.531z"/></symbol><symbol id="icon-serch" viewBox="0 0 32 32"><path d="M30.786 26.636a2.933 2.933 0 11-4.149 4.148l-8.597-8.596a11.663 11.663 0 01-5.95 1.634C5.61 23.822.357 18.569.357 12.089S5.61.356 12.09.356s11.733 5.253 11.733 11.733c0 2.174-.603 4.204-1.634 5.95l8.597 8.597zM12.089 3.287c-4.86 0-8.8 3.941-8.8 8.802s3.94 8.8 8.8 8.8c4.86 0 8.8-3.94 8.8-8.8s-3.94-8.802-8.8-8.802z"/></symbol><symbol id="icon-shop" viewBox="0 0 32 32"><path d="M31.513 9.179h.002l-4.4 9.778a1.467 1.467 0 01-1.239.862l-12.672.844.732 2.091h13.797a2.934 2.934 0 11-2.933 2.935H11.111a2.933 2.933 0 11-2.933-2.935h2.651L5.183 6.622h-3.36a1.467 1.467 0 010-2.934h4.4c.64 0 1.179.412 1.38.983l.005-.002.853 2.441h21.717a1.466 1.466 0 011.335 2.068zm-22.025.865l2.711 7.746 12.603-.841 3.108-6.905H9.489z"/></symbol><symbol id="icon-twitter" viewBox="0 0 32 32"><path d="M21.554 3.201c2.503-.044 3.836.868 5.109 2.027 1.081-.092 2.485-.695 3.312-1.116l.804-.439c-.473 1.276-1.113 2.276-2.097 3.035-.219.167-.436.395-.71.502v.016c1.403-.014 2.56-.647 3.659-.991v.016c-.577.917-1.359 1.849-2.192 2.516l-1.009.801c.018 1.486-.022 2.903-.299 4.151-1.615 7.255-5.893 12.181-12.663 14.292-2.432.757-6.361 1.068-9.147.377-1.381-.342-2.629-.73-3.799-1.242a14.921 14.921 0 01-1.83-.944c-.19-.114-.378-.23-.567-.345.628.018 1.364.192 2.065.078.636-.102 1.259-.075 1.846-.203 1.462-.321 2.761-.746 3.878-1.401.543-.318 1.366-.689 1.751-1.147-.726.012-1.385-.156-1.924-.346-2.091-.738-3.308-2.096-4.101-4.135.634.07 2.459.235 2.886-.126-.798-.044-1.564-.506-2.113-.849-1.682-1.052-3.054-2.817-3.044-5.534l.662.314c.423.178.853.273 1.356.378.213.044.639.169.884.078h-.032c-.325-.378-.855-.63-1.183-1.038-1.079-1.34-2.09-3.404-1.451-5.863.162-.624.42-1.174.694-1.682l.032.015c.126.263.406.457.583.677.551.683 1.231 1.297 1.924 1.839 2.361 1.846 4.486 2.981 7.9 3.82.866.214 1.867.377 2.902.378-.29-.846-.197-2.215.031-3.034.576-2.06 1.825-3.543 3.659-4.34.438-.19.924-.329 1.435-.441l.789-.094z"/></symbol></defs></svg>